<?xml version="1.0" encoding="UTF-8"?>
<svg id="Camada_2" data-name="Camada 2" xmlns="http://www.w3.org/2000/svg" viewBox="0 0 84.94 95.56">
  <defs>
    <style>
      .cls-1 {
        fill: #fff7e4;
      }

      .cls-2 {
        fill: #d9c8bf;
      }

      .cls-3 {
        fill: #87a889;
      }

      .cls-4 {
        fill: #ffe6c6;
      }

      .cls-5 {
        fill: #28282e;
      }
    </style>
  </defs>
  <g id="Camada_1-2" data-name="Camada 1">
    <g>
      <rect class="cls-5" x="21.24" width="5.31" height="5.31"/>
      <rect class="cls-5" x="58.4" width="5.31" height="5.31"/>
      <rect class="cls-5" x="15.93" y="5.31" width="5.31" height="10.62"/>
      <rect class="cls-2" x="21.24" y="5.31" width="5.31" height="42.47"/>
      <rect class="cls-5" x="26.54" y="5.31" width="5.31" height="5.31"/>
      <rect class="cls-5" x="53.09" y="5.31" width="5.31" height="5.31"/>
      <rect class="cls-2" x="58.4" y="5.31" width="5.31" height="42.47"/>
      <rect class="cls-5" x="63.71" y="5.31" width="5.31" height="10.62"/>
      <rect class="cls-2" x="26.54" y="10.62" width="5.31" height="37.16"/>
      <rect class="cls-5" x="31.85" y="10.62" width="5.31" height="5.31"/>
      <rect class="cls-5" x="47.78" y="10.62" width="5.31" height="5.31"/>
      <rect class="cls-2" x="53.09" y="10.62" width="5.31" height="37.16"/>
      <rect class="cls-5" x="10.62" y="15.93" width="5.31" height="15.93"/>
      <rect class="cls-2" x="15.93" y="15.93" width="5.31" height="15.93"/>
      <rect class="cls-2" x="31.85" y="15.93" width="5.31" height="15.93"/>
      <rect class="cls-5" x="37.16" y="15.93" width="10.62" height="10.62"/>
      <rect class="cls-2" x="47.78" y="15.93" width="5.31" height="10.62"/>
      <rect class="cls-2" x="63.71" y="15.93" width="5.31" height="15.93"/>
      <rect class="cls-5" x="69.02" y="15.93" width="5.31" height="15.93"/>
      <rect class="cls-5" x="37.16" y="26.54" width="5.31" height="5.31"/>
      <rect class="cls-3" x="42.47" y="26.54" width="10.62" height="10.62"/>
      <rect class="cls-5" x="15.93" y="31.85" width="5.31" height="5.31"/>
      <rect class="cls-5" x="31.85" y="31.85" width="5.31" height="5.31"/>
      <rect class="cls-3" x="37.16" y="31.85" width="5.31" height="10.62"/>
      <rect class="cls-5" x="63.71" y="31.85" width="5.31" height="5.31"/>
      <rect class="cls-5" x="10.62" y="37.16" width="5.31" height="5.31"/>
      <rect class="cls-2" x="15.93" y="37.16" width="5.31" height="10.62"/>
      <rect class="cls-2" x="31.85" y="37.16" width="5.31" height="31.85"/>
      <rect class="cls-3" x="42.47" y="37.16" width="5.31" height="5.31"/>
      <rect class="cls-2" x="47.78" y="37.16" width="5.31" height="31.85"/>
      <rect class="cls-2" x="63.71" y="37.16" width="5.31" height="10.62"/>
      <rect class="cls-5" x="69.02" y="37.16" width="5.31" height="5.31"/>
      <rect class="cls-5" x="5.31" y="42.47" width="5.31" height="5.31"/>
      <rect class="cls-2" x="10.62" y="42.47" width="5.31" height="26.54"/>
      <rect class="cls-2" x="37.16" y="42.47" width="10.62" height="15.93"/>
      <rect class="cls-2" x="69.02" y="42.47" width="5.31" height="26.54"/>
      <rect class="cls-5" x="74.32" y="42.47" width="5.31" height="5.31"/>
      <rect class="cls-5" y="47.78" width="5.31" height="31.85"/>
      <rect class="cls-2" x="5.31" y="47.78" width="5.31" height="26.54"/>
      <rect class="cls-1" x="15.93" y="47.78" width="15.93" height="5.31"/>
      <rect class="cls-1" x="53.09" y="47.78" width="15.93" height="5.31"/>
      <rect class="cls-2" x="74.32" y="47.78" width="5.31" height="26.54"/>
      <rect class="cls-5" x="79.63" y="47.78" width="5.31" height="31.85"/>
      <rect class="cls-1" x="15.93" y="53.09" width="5.31" height="10.62"/>
      <rect class="cls-5" x="21.24" y="53.09" width="5.31" height="5.31"/>
      <rect class="cls-1" x="26.54" y="53.09" width="5.31" height="10.62"/>
      <rect class="cls-1" x="53.09" y="53.09" width="5.31" height="10.62"/>
      <rect class="cls-5" x="58.4" y="53.09" width="5.31" height="5.31"/>
      <rect class="cls-1" x="63.71" y="53.09" width="5.31" height="10.62"/>
      <rect class="cls-1" x="21.24" y="58.4" width="5.31" height="5.31"/>
      <rect class="cls-5" x="37.16" y="58.4" width="10.62" height="5.31"/>
      <rect class="cls-1" x="58.4" y="58.4" width="5.31" height="5.31"/>
      <rect class="cls-2" x="15.93" y="63.71" width="15.93" height="5.31"/>
      <rect class="cls-2" x="37.16" y="63.71" width="10.62" height="5.31"/>
      <rect class="cls-2" x="53.09" y="63.71" width="15.93" height="5.31"/>
      <rect class="cls-4" x="10.62" y="69.02" width="63.71" height="5.31"/>
      <rect class="cls-4" x="5.31" y="74.32" width="10.62" height="5.31"/>
      <rect class="cls-2" x="15.93" y="74.32" width="10.62" height="5.31"/>
      <rect class="cls-4" x="26.54" y="74.32" width="10.62" height="10.62"/>
      <rect class="cls-2" x="37.16" y="74.32" width="10.62" height="5.31"/>
      <rect class="cls-4" x="47.78" y="74.32" width="10.62" height="10.62"/>
      <rect class="cls-2" x="58.4" y="74.32" width="10.62" height="5.31"/>
      <rect class="cls-4" x="69.02" y="74.32" width="10.62" height="5.31"/>
      <rect class="cls-5" x="5.31" y="79.63" width="5.31" height="5.31"/>
      <rect class="cls-4" x="10.62" y="79.63" width="15.93" height="5.31"/>
      <rect class="cls-4" x="37.16" y="79.63" width="10.62" height="10.62"/>
      <rect class="cls-4" x="58.4" y="79.63" width="15.93" height="5.31"/>
      <rect class="cls-5" x="74.32" y="79.63" width="5.31" height="5.31"/>
      <rect class="cls-5" x="10.62" y="84.94" width="10.62" height="5.31"/>
      <rect class="cls-4" x="21.24" y="84.94" width="5.31" height="5.31"/>
      <rect class="cls-2" x="26.54" y="84.94" width="10.62" height="5.31"/>
      <rect class="cls-2" x="47.78" y="84.94" width="10.62" height="5.31"/>
      <rect class="cls-4" x="58.4" y="84.94" width="5.31" height="5.31"/>
      <rect class="cls-5" x="63.71" y="84.94" width="10.62" height="5.31"/>
      <rect class="cls-5" x="21.24" y="90.25" width="42.47" height="5.31"/>
    </g>
  </g>
</svg>